<?xml version="1.0" encoding="UTF-8" standalone="no"?>
<svg xmlns:dc="http://purl.org/dc/elements/1.1/" xmlns:cc="http://creativecommons.org/ns#" xmlns:rdf="http://www.w3.org/1999/02/22-rdf-syntax-ns#" xmlns:svg="http://www.w3.org/2000/svg" xmlns="http://www.w3.org/2000/svg" xmlns:xlink="http://www.w3.org/1999/xlink" xmlns:sodipodi="http://sodipodi.sourceforge.net/DTD/sodipodi-0.dtd" xmlns:inkscape="http://www.inkscape.org/namespaces/inkscape" width="13169" height="10050" viewBox="0 -5240.4 13169 10050" role="img" id="svg2" version="1.1" inkscape:version="0.91 r13725" sodipodi:docname="dynatable.svg">
    <metadata id="metadata201">
        <rdf:RDF>
            <cc:Work rdf:about="">
                <dc:format>image/svg+xml</dc:format>
                <dc:type rdf:resource="http://purl.org/dc/dcmitype/StillImage" />
            </cc:Work>
        </rdf:RDF>
    </metadata>
    <sodipodi:namedview pagecolor="#ffffff" bordercolor="#666666" borderopacity="1" objecttolerance="10" gridtolerance="10" guidetolerance="10" inkscape:pageopacity="0" inkscape:pageshadow="2" inkscape:window-width="1855" inkscape:window-height="1056" id="namedview199" showgrid="false" inkscape:zoom="0.083929" inkscape:cx="6584.5" inkscape:cy="5025.1" inkscape:window-x="2225" inkscape:window-y="24" inkscape:window-maximized="1" inkscape:current-layer="svg2" />
    <defs id="defs4">
        <path id="E1-MJMAIN-27" d="m 78,634 q 0,25 17,42 17,17 43,18 28,0 51,-26 23,-26 23,-89 0,-54 -22,-103 -22,-49 -44,-73 -22,-24 -28,-24 -4,0 -13,9 -9,9 -10,13 0,3 12,16 12,13 26,31 14,18 28,52 14,34 15,72 0,12 -1,12 -1,0 -5,-3 -4,-3 -13,-5 -9,-2 -18,-3 -25,0 -43,17 -18,17 -18,44 z" inkscape:connector-curvature="0" style="stroke-width:1" />
        <path id="E1-MJMAIN-43" d="m 56,342 q 0,86 33,158 33,72 85,115 52,43 109,66 57,23 108,24 3,0 9,0 6,0 8,-1 91,0 161,-68 l 13,-12 30,39 q 27,37 31,41 1,0 4,0 3,0 6,1 l 4,0 q 3,0 9,-6 l 0,-280 -6,-6 -34,0 q -6,6 -7,17 -9,82 -48,142 -39,60 -95,79 -19,7 -50,7 -104,0 -174,-70 -79,-79 -79,-246 0,-121 38,-191 21,-40 52,-67 31,-27 65,-39 34,-12 56,-16 22,-4 44,-5 89,0 143,69 54,69 55,151 0,7 6,13 l 28,0 6,-6 0,-15 Q 661,133 590,56 519,-21 403,-21 262,-21 159,83 56,187 56,342 Z" inkscape:connector-curvature="0" style="stroke-width:1" />
        <path id="E1-MJMAIN-54" d="m 36,443 q 1,5 10,115 9,110 9,113 l 0,6 611,0 0,-6 q 1,-5 10,-115 9,-110 9,-113 l 0,-6 -40,0 0,6 q 0,2 -3,35 -3,33 -11,66 -8,33 -21,49 -17,21 -55,32 -21,5 -77,5 l -27,0 -8,0 q -26,0 -29,-12 -1,-2 -1,-279 l 0,-276 q 7,-10 26,-13 19,-3 89,-4 l 30,0 0,-46 -13,0 -184,3 Q 186,1 177,0 l -13,0 0,46 30,0 q 70,0 89,3 19,3 26,14 l 0,276 0,211 q 0,70 -5,75 -5,5 -33,5 l -27,0 -20,0 Q 154,630 119,601 101,585 93,554 85,523 81,486 77,449 76,443 l 0,-6 -40,0 0,6 z" inkscape:connector-curvature="0" style="stroke-width:1" />
        <path id="E1-MJMAIN-41" d="M 255,0 Q 240,3 140,3 48,3 39,0 l -7,0 0,46 15,0 q 72,3 92,42 1,3 53,157 52,154 103,308 51,154 53,155 3,8 18,8 l 10,0 q 20,-1 24,-7 2,-2 108,-319 L 617,67 q 7,-13 19,-16 12,-3 51,-5 l 30,0 0,-46 -9,0 Q 699,3 581,3 458,3 437,0 l -10,0 0,46 13,0 q 70,0 70,18 0,2 -24,74 l -24,71 -233,0 -20,-59 Q 189,91 189,85 189,72 209,59 229,46 259,46 l 5,0 0,-46 -9,0 z M 447,255 345,557 244,256 q 0,-1 101,-1 l 102,0 z" inkscape:connector-curvature="0" style="stroke-width:1" />
        <path id="E1-MJMAIN-30" d="m 96,585 q 56,81 153,81 48,0 96,-26 48,-26 78,-92 37,-83 37,-228 0,-155 -43,-237 -20,-42 -55,-67 -35,-25 -61,-31 -26,-6 -51,-7 -26,0 -52,6 -26,6 -61,32 -35,26 -55,67 -43,82 -43,237 0,174 57,265 z m 225,12 q -30,32 -71,32 -42,0 -72,-32 -25,-26 -33,-72 -8,-46 -8,-192 0,-158 8,-208 8,-50 36,-79 28,-30 69,-30 40,0 68,30 29,30 36,84 7,54 8,203 0,145 -8,191 -8,46 -33,73 z" inkscape:connector-curvature="0" style="stroke-width:1" />
        <path id="E1-MJMAIN-31" d="m 213,578 -13,-5 q -14,-5 -40,-10 -26,-5 -58,-7 l -19,0 0,46 19,0 q 47,2 87,15 40,13 56,24 16,11 28,22 2,3 12,3 9,0 17,-6 l 0,-299 1,-300 q 7,-7 12,-9 5,-2 24,-4 19,-2 62,-2 l 26,0 0,-46 -11,0 Q 395,3 257,3 121,3 100,0 l -12,0 0,46 26,0 q 22,0 38,0 16,0 25,1 9,1 16,3 7,2 8,2 1,0 6,5 5,5 6,4 l 0,517 z" inkscape:connector-curvature="0" style="stroke-width:1" />
        <path id="E1-MJMAIN-32" d="m 109,429 q -27,0 -43,18 -16,18 -16,44 0,71 53,123 53,52 132,52 91,0 152,-56 61,-56 62,-145 0,-43 -20,-82 -20,-39 -48,-68 -28,-29 -80,-74 -36,-31 -100,-92 l -59,-56 76,-1 q 157,0 167,5 7,2 24,89 l 0,3 40,0 0,-3 Q 448,183 436,95 424,7 421,3 l 0,-3 -371,0 0,19 0,12 q 0,7 6,15 6,8 30,35 29,32 50,56 9,10 34,37 25,27 34,37 9,10 29,33 20,23 28,34 8,11 23,30 15,19 21,32 6,13 15,29 9,16 13,32 4,16 7,30 3,14 3,33 0,63 -34,109 -34,46 -97,46 -33,0 -58,-17 -25,-17 -35,-33 -10,-16 -10,-19 0,-1 5,-1 18,0 37,-14 19,-14 19,-46 0,-25 -16,-42 -16,-17 -45,-18 z" inkscape:connector-curvature="0" style="stroke-width:1" />
        <path id="E1-MJMAIN-33" d="m 127,463 q -27,0 -42,17 -15,17 -16,44 0,55 48,98 48,43 116,43 35,0 44,-1 74,-12 113,-53 39,-41 40,-89 0,-52 -34,-101 -34,-49 -94,-71 l -3,-2 q 0,-1 9,-3 9,-2 29,-9 20,-7 38,-21 82,-53 82,-140 0,-79 -62,-138 -62,-59 -157,-59 -80,0 -138,43 -58,43 -58,109 0,28 18,45 18,17 45,18 28,0 46,-18 18,-18 18,-45 0,-11 -3,-20 -3,-9 -7,-16 -4,-7 -11,-12 -7,-5 -12,-8 -5,-3 -10,-4 -5,-1 -8,-3 l -4,-1 q 51,-45 124,-45 55,0 83,53 17,33 17,101 l 0,20 q 0,95 -64,127 -15,6 -61,7 l -42,1 -3,2 q -2,3 -2,16 0,18 8,18 28,0 58,5 34,5 62,42 28,37 28,112 l 0,8 q 0,57 -35,79 -22,14 -47,14 -32,0 -59,-11 -27,-11 -38,-23 -11,-12 -11,-12 l 3,0 q 3,-1 8,-2 5,-1 10,-5 5,-4 12,-7 7,-3 10,-11 3,-8 8,-15 5,-7 3,-20 0,-22 -14,-39 -14,-17 -45,-18 z" inkscape:connector-curvature="0" style="stroke-width:1" />
        <path id="E1-MJMAIN-34" d="M 462,0 Q 444,3 333,3 217,3 199,0 l -9,0 0,46 31,0 q 20,0 27,0 7,0 17,2 10,2 14,5 4,3 7,8 1,2 1,54 l 0,50 -259,0 0,46 151,231 q 153,232 155,233 2,2 21,2 l 18,0 6,-6 0,-460 92,0 0,-46 -92,0 0,-51 q 0,-41 0,-48 0,-7 6,-12 8,-7 57,-8 l 29,0 0,-46 -9,0 z m -169,211 0,334 -219,-333 109,-1 110,0 z" inkscape:connector-curvature="0" style="stroke-width:1" />
        <path id="E1-MJMAIN-47" d="m 56,342 q 0,86 33,158 33,72 85,115 52,43 109,66 57,23 108,24 3,0 9,0 6,0 8,-1 91,0 161,-68 l 13,-12 30,39 q 27,37 31,41 1,0 4,0 3,0 6,1 l 4,0 q 3,0 9,-6 l 0,-280 -6,-6 -34,0 q -6,6 -7,17 -9,82 -48,142 -39,60 -95,79 -19,7 -50,7 -25,0 -50,-4 -25,-4 -60,-21 -35,-17 -62,-41 -27,-24 -49,-73 -22,-49 -28,-108 -4,-42 -4,-76 0,-76 19,-134 19,-58 46,-90 27,-32 64,-53 37,-21 68,-27 31,-6 61,-7 47,0 82,21 35,21 46,55 3,10 3,60 l 0,52 q -1,1 -5,4 -4,3 -6,4 -2,1 -9,3 -7,2 -16,2 -9,0 -24,1 -15,1 -39,1 l -26,0 0,46 12,0 160,-3 q 106,0 118,3 l 8,0 0,-46 -14,0 q -47,0 -53,-12 -2,-4 -2,-107 L 666,6 q -6,-6 -9,-6 -4,0 -18,10 -22,15 -39,32 L 587,54 Q 571,27 524,3 477,-21 406,-22 317,-22 238,22 159,66 108,151 57,236 56,342 Z" inkscape:connector-curvature="0" style="stroke-width:1" />
        <path id="E1-MJMAIN-35" d="m 164,157 q 0,-24 -16,-40 -16,-16 -39,-16 l -7,0 q 46,-79 122,-79 70,0 102,60 19,33 19,128 0,103 -27,139 -26,33 -58,33 l -6,0 q -78,0 -118,-68 -4,-7 -7,-8 -3,-1 -15,-2 -17,0 -19,6 -2,4 -2,175 l 0,129 q 0,50 5,50 2,2 4,2 1,0 21,-8 20,-8 55,-16 35,-8 75,-8 71,0 136,28 8,4 13,4 8,0 8,-18 l 0,-13 q -82,-97 -205,-97 -31,0 -56,6 l -10,2 0,-172 q 19,14 30,22 11,8 36,16 25,8 51,8 81,0 137,-65 56,-65 56,-154 0,-92 -64,-157 -64,-65 -156,-66 -81,0 -130,54 -49,54 -49,122 0,24 11,38 11,14 23,18 12,4 23,4 25,0 41,-17 16,-17 16,-40 z" inkscape:connector-curvature="0" style="stroke-width:1" />
    </defs>
    <g transform="scale(1,-1)" id="g17" style="fill:currentColor;stroke:currentColor;stroke-width:0">
        <g transform="translate(167,0)" id="g19">
            <g transform="translate(389,0)" id="g21">
                <g transform="translate(392,2750)" id="g23">
                    <use xlink:href="#E1-MJMAIN-27" id="use25" x="0" y="0" width="100%" height="100%" />
                    <use xlink:href="#E1-MJMAIN-27" x="278" y="0" id="use27" width="100%" height="100%" />
                </g>
                <g transform="translate(0,1350)" id="g29">
                    <use xlink:href="#E1-MJMAIN-27" id="use31" x="0" y="0" width="100%" height="100%" />
                    <use xlink:href="#E1-MJMAIN-47" x="278" y="0" id="use33" width="100%" height="100%" />
                    <use xlink:href="#E1-MJMAIN-27" x="1064" y="0" id="use35" width="100%" height="100%" />
                </g>
                <g transform="translate(31,-50)" id="g37">
                    <use xlink:href="#E1-MJMAIN-27" id="use39" x="0" y="0" width="100%" height="100%" />
                    <use xlink:href="#E1-MJMAIN-43" x="278" y="0" id="use41" width="100%" height="100%" />
                    <use xlink:href="#E1-MJMAIN-27" x="1001" y="0" id="use43" width="100%" height="100%" />
                </g>
                <g transform="translate(31,-1450)" id="g45">
                    <use xlink:href="#E1-MJMAIN-27" id="use47" x="0" y="0" width="100%" height="100%" />
                    <use xlink:href="#E1-MJMAIN-54" x="278" y="0" id="use49" width="100%" height="100%" />
                    <use xlink:href="#E1-MJMAIN-27" x="1001" y="0" id="use51" width="100%" height="100%" />
                </g>
                <g transform="translate(17,-2850)" id="g53">
                    <use xlink:href="#E1-MJMAIN-27" id="use55" x="0" y="0" width="100%" height="100%" />
                    <use xlink:href="#E1-MJMAIN-41" x="278" y="0" id="use57" width="100%" height="100%" />
                    <use xlink:href="#E1-MJMAIN-27" x="1029" y="0" id="use59" width="100%" height="100%" />
                </g>
                <g transform="translate(31,-4250)" id="g61">
                    <use xlink:href="#E1-MJMAIN-27" id="use63" x="0" y="0" width="100%" height="100%" />
                    <use xlink:href="#E1-MJMAIN-43" x="278" y="0" id="use65" width="100%" height="100%" />
                    <use xlink:href="#E1-MJMAIN-27" x="1001" y="0" id="use67" width="100%" height="100%" />
                </g>
            </g>
            <line y1="10" x2="10" x1="10" y2="9820" transform="translate(2232,-4666)" id="line69" style="stroke-width:20.9;stroke-linecap:square" />
            <g transform="translate(2732,0)" id="g71">
                <g transform="translate(0,4150)" id="g73">
                    <use xlink:href="#E1-MJMAIN-27" id="use75" x="0" y="0" width="100%" height="100%" />
                    <use xlink:href="#E1-MJMAIN-27" x="278" y="0" id="use77" width="100%" height="100%" />
                </g>
                <use xlink:href="#E1-MJMAIN-30" x="28" y="2750" id="use79" width="100%" height="100%" />
                <use xlink:href="#E1-MJMAIN-31" x="28" y="1350" id="use81" width="100%" height="100%" />
                <use xlink:href="#E1-MJMAIN-32" x="28" y="-50" id="use83" width="100%" height="100%" />
                <use xlink:href="#E1-MJMAIN-33" x="28" y="-1450" id="use85" width="100%" height="100%" />
                <use xlink:href="#E1-MJMAIN-34" x="28" y="-2850" id="use87" width="100%" height="100%" />
                <use xlink:href="#E1-MJMAIN-35" x="28" y="-4250" id="use89" width="100%" height="100%" />
            </g>
            <line y1="10" x2="10" x1="10" y2="9820" transform="translate(3789,-4666)" id="line91" style="stroke-width:20.9;stroke-linecap:square" />
            <g transform="translate(4289,0)" id="g93">
                <g transform="translate(0,4150)" id="g95">
                    <use xlink:href="#E1-MJMAIN-27" id="use97" x="0" y="0" width="100%" height="100%" />
                    <use xlink:href="#E1-MJMAIN-43" x="278" y="0" id="use99" width="100%" height="100%" />
                    <use xlink:href="#E1-MJMAIN-27" x="1001" y="0" id="use101" width="100%" height="100%" />
                </g>
                <use xlink:href="#E1-MJMAIN-31" x="389" y="2750" id="use103" width="100%" height="100%" />
                <use xlink:href="#E1-MJMAIN-31" x="389" y="1350" id="use105" width="100%" height="100%" />
                <use xlink:href="#E1-MJMAIN-31" x="389" y="-50" id="use107" width="100%" height="100%" />
                <use xlink:href="#E1-MJMAIN-32" x="389" y="-1450" id="use109" width="100%" height="100%" />
                <use xlink:href="#E1-MJMAIN-33" x="389" y="-2850" id="use111" width="100%" height="100%" />
                <use xlink:href="#E1-MJMAIN-34" x="389" y="-4250" id="use113" width="100%" height="100%" />
            </g>
            <line y1="10" x2="10" x1="10" y2="9820" transform="translate(6068,-4666)" id="line115" style="stroke-width:20.9;stroke-linecap:square" />
            <g transform="translate(6568,0)" id="g117">
                <g transform="translate(0,4150)" id="g119">
                    <use xlink:href="#E1-MJMAIN-27" id="use121" x="0" y="0" width="100%" height="100%" />
                    <use xlink:href="#E1-MJMAIN-54" x="278" y="0" id="use123" width="100%" height="100%" />
                    <use xlink:href="#E1-MJMAIN-27" x="1001" y="0" id="use125" width="100%" height="100%" />
                </g>
                <use xlink:href="#E1-MJMAIN-32" x="389" y="2750" id="use127" width="100%" height="100%" />
                <use xlink:href="#E1-MJMAIN-32" x="389" y="1350" id="use129" width="100%" height="100%" />
                <use xlink:href="#E1-MJMAIN-32" x="389" y="-50" id="use131" width="100%" height="100%" />
                <use xlink:href="#E1-MJMAIN-31" x="389" y="-1450" id="use133" width="100%" height="100%" />
                <use xlink:href="#E1-MJMAIN-32" x="389" y="-2850" id="use135" width="100%" height="100%" />
                <use xlink:href="#E1-MJMAIN-33" x="389" y="-4250" id="use137" width="100%" height="100%" />
            </g>
            <line y1="10" x2="10" x1="10" y2="9820" transform="translate(8348,-4666)" id="line139" style="stroke-width:20.9;stroke-linecap:square" />
            <g transform="translate(8848,0)" id="g141">
                <g transform="translate(0,4150)" id="g143">
                    <use xlink:href="#E1-MJMAIN-27" id="use145" x="0" y="0" width="100%" height="100%" />
                    <use xlink:href="#E1-MJMAIN-43" x="278" y="0" id="use147" width="100%" height="100%" />
                    <use xlink:href="#E1-MJMAIN-27" x="1001" y="0" id="use149" width="100%" height="100%" />
                </g>
                <use xlink:href="#E1-MJMAIN-33" x="389" y="2750" id="use151" width="100%" height="100%" />
                <use xlink:href="#E1-MJMAIN-33" x="389" y="1350" id="use153" width="100%" height="100%" />
                <use xlink:href="#E1-MJMAIN-32" x="389" y="-50" id="use155" width="100%" height="100%" />
                <use xlink:href="#E1-MJMAIN-32" x="389" y="-1450" id="use157" width="100%" height="100%" />
                <use xlink:href="#E1-MJMAIN-32" x="389" y="-2850" id="use159" width="100%" height="100%" />
                <use xlink:href="#E1-MJMAIN-32" x="389" y="-4250" id="use161" width="100%" height="100%" />
            </g>
            <line y1="10" x2="10" x1="10" y2="9820" transform="translate(10627,-4666)" id="line163" style="stroke-width:20.9;stroke-linecap:square" />
            <g transform="translate(11127,0)" id="g165">
                <g transform="translate(0,4150)" id="g167">
                    <use xlink:href="#E1-MJMAIN-27" id="use169" x="0" y="0" width="100%" height="100%" />
                    <use xlink:href="#E1-MJMAIN-41" x="278" y="0" id="use171" width="100%" height="100%" />
                    <use xlink:href="#E1-MJMAIN-27" x="1029" y="0" id="use173" width="100%" height="100%" />
                </g>
                <use xlink:href="#E1-MJMAIN-34" x="403" y="2750" id="use175" width="100%" height="100%" />
                <use xlink:href="#E1-MJMAIN-34" x="403" y="1350" id="use177" width="100%" height="100%" />
                <use xlink:href="#E1-MJMAIN-33" x="403" y="-50" id="use179" width="100%" height="100%" />
                <use xlink:href="#E1-MJMAIN-33" x="403" y="-1450" id="use181" width="100%" height="100%" />
                <use xlink:href="#E1-MJMAIN-32" x="403" y="-2850" id="use183" width="100%" height="100%" />
                <use xlink:href="#E1-MJMAIN-33" x="403" y="-4250" id="use185" width="100%" height="100%" />
            </g>
            <line y2="10" y1="10" x1="10" x2="12824" transform="translate(0,3739)" id="line187" style="stroke-width:20.9;stroke-linecap:square" />
            <line y2="10" y1="10" x1="10" x2="12824" transform="translate(0,2339)" id="line189" style="stroke-width:20.9;stroke-linecap:square" />
            <line y2="10" y1="10" x1="10" x2="12824" transform="translate(0,939)" id="line191" style="stroke-width:20.9;stroke-linecap:square" />
            <line y2="10" y1="10" x1="10" x2="12824" transform="translate(0,-461)" id="line193" style="stroke-width:20.9;stroke-linecap:square" />
            <line y2="10" y1="10" x1="10" x2="12824" transform="translate(0,-1861)" id="line195" style="stroke-width:20.9;stroke-linecap:square" />
            <line y2="10" y1="10" x1="10" x2="12824" transform="translate(0,-3261)" id="line197" style="stroke-width:20.9;stroke-linecap:square" />
        </g>
    </g>
</svg>
